<svg width="18" height="16" fill="none" xmlns="http://www.w3.org/2000/svg"><path d="M17.994 14.89 16.798 4.223a.996.996 0 0 0-.33-.635 1.013 1.013 0 0 0-.672-.255h-3.113a3.654 3.654 0 0 0-1.19-2.374A3.716 3.716 0 0 0 9 0c-.923 0-1.812.342-2.493.959a3.655 3.655 0 0 0-1.19 2.374H2.204c-.248 0-.488.09-.673.255a.996.996 0 0 0-.33.635L.007 14.89a.992.992 0 0 0 .251.777A1.008 1.008 0 0 0 1.01 16H16.99a1.018 1.018 0 0 0 .752-.333.998.998 0 0 0 .25-.777zM9 .666a3.045 3.045 0 0 1 2.016.765c.555.492.908 1.169.991 1.902H5.993c.083-.733.436-1.41.99-1.902A3.045 3.045 0 0 1 9 .666zm8.242 14.556a.333.333 0 0 1-.25.111H1.008a.34.34 0 0 1-.32-.232.33.33 0 0 1-.014-.138L1.87 4.296A.332.332 0 0 1 2.204 4h3.097v2.333a.338.338 0 0 0 .673 0V4h6.052v2.333a.338.338 0 0 0 .672 0V4h3.098a.337.337 0 0 1 .334.296l1.195 10.667a.327.327 0 0 1-.083.26z" fill="#fff"/></svg>